<?xml version="1.0" encoding="UTF-8"?>
<svg version="1.1" xmlns="http://www.w3.org/2000/svg" width="48" height="48">
<path d="M0 0 C0.05380578 2.79192205 0.09357669 5.5828141 0.125 8.375 C0.15013672 9.56609375 0.15013672 9.56609375 0.17578125 10.78125 C0.19335473 12.85492015 0.10335168 14.92883241 0 17 C-0.66 17.66 -1.32 18.32 -2 19 C-2.15107376 22.54578993 -2.1221678 26.06880348 -2.0703125 29.6171875 C-2.37710937 30.73351562 -2.68390625 31.84984375 -3 33 C-6.96 34.98 -6.96 34.98 -11 37 C-11 28.09 -11 19.18 -11 10 C-12.65 10 -14.3 10 -16 10 C-16 8.02 -16 6.04 -16 4 C-10.41003779 0.19406828 -6.67671716 -0.44117746 0 0 Z " fill="#B93CFE" transform="translate(32,1)"/>
<path d="M0 0 C2.64 1.32 5.28 2.64 8 4 C8.96484375 7.41796875 8.96484375 7.41796875 8.9375 11.1875 C8.54573845 15.40663391 8.54573845 15.40663391 10 19 C10.08631874 20.34267413 10.10706473 21.68974322 10.09765625 23.03515625 C10.09443359 23.84404297 10.09121094 24.65292969 10.08789062 25.48632812 C10.07951172 26.33646484 10.07113281 27.18660156 10.0625 28.0625 C10.05798828 28.91650391 10.05347656 29.77050781 10.04882812 30.65039062 C10.03700373 32.76695663 10.01906769 34.88348685 10 37 C8.5745012 37.04417517 7.14860175 37.07552959 5.72265625 37.1015625 C4.92867432 37.12041504 4.13469238 37.13926758 3.31665039 37.15869141 C-0.39949629 36.90413399 -2.37624526 35.55647898 -5 33 C-5.375 29.75 -5.375 29.75 -5 27 C-3.35 27 -1.7 27 0 27 C0 18.09 0 9.18 0 0 Z " fill="#BA3BFE" transform="translate(37,10)"/>
<path d="M0 0 C3.465 1.98 3.465 1.98 7 4 C7 8.62 7 13.24 7 18 C7.99 18.33 8.98 18.66 10 19 C10 24.94 10 30.88 10 37 C-0.89473684 37 -0.89473684 37 -5 33 C-5.375 29.75 -5.375 29.75 -5 27 C-3.35 27 -1.7 27 0 27 C0 18.09 0 9.18 0 0 Z " fill="#BA3BFE" transform="translate(6,10)"/>
</svg>
