<?xml version="1.0" encoding="UTF-8"?>
<svg xmlns="http://www.w3.org/2000/svg" xmlns:xlink="http://www.w3.org/1999/xlink" width="48px" height="48px" viewBox="0 0 48 48" version="1.1">
<g id="surface1">
<path style=" stroke:none;fill-rule:nonzero;fill:rgb(40.000001%,79.215688%,91.764706%);fill-opacity:1;" d="M 28.933594 33.09375 L 21.753906 37.316406 L 21.753906 10.902344 L 16.894531 10.902344 L 16.894531 5.476562 L 23.855469 1.125 L 31.152344 1.125 L 31.152344 18.253906 L 28.75 20.03125 Z M 28.933594 33.09375 "/>
<path style=" stroke:none;fill-rule:nonzero;fill:rgb(40.000001%,79.215688%,91.764706%);fill-opacity:1;" d="M 44.46875 14.90625 L 37.472656 10.683594 L 37.472656 37.070312 L 32.632812 37.070312 L 32.613281 42.523438 L 39.574219 46.875 L 46.875 46.875 L 46.875 29.746094 L 44.46875 27.96875 Z M 44.46875 14.90625 "/>
<path style=" stroke:none;fill-rule:nonzero;fill:rgb(40.000001%,79.215688%,91.764706%);fill-opacity:1;" d="M 12.980469 14.90625 L 5.984375 10.683594 L 5.984375 37.070312 L 1.125 37.070312 L 1.125 42.523438 L 8.085938 46.875 L 15.382812 46.875 L 15.382812 29.746094 L 12.980469 27.96875 Z M 12.980469 14.90625 "/>
</g>
</svg>
