<?xml version="1.0" encoding="UTF-8"?>
<svg xmlns="http://www.w3.org/2000/svg" xmlns:xlink="http://www.w3.org/1999/xlink" width="48px" height="48px" viewBox="0 0 48 48" version="1.1">
<defs>
<linearGradient id="linear0" gradientUnits="userSpaceOnUse" x1="130.539993" y1="0" x2="130.539993" y2="206.300003" gradientTransform="matrix(0.183908,0,0,0.183908,0.0128736,0.0193096)">
<stop offset="0" style="stop-color:rgb(96.078431%,63.137255%,53.72549%);stop-opacity:1;"/>
<stop offset="1" style="stop-color:rgb(85.882353%,38.823529%,15.686275%);stop-opacity:1;"/>
</linearGradient>
<linearGradient id="linear1" gradientUnits="userSpaceOnUse" x1="220.210007" y1="53.450001" x2="220.210007" y2="259.76001" gradientTransform="matrix(0.183908,0,0,0.183908,0.0128736,0.0193096)">
<stop offset="0" style="stop-color:rgb(96.078431%,63.137255%,53.72549%);stop-opacity:1;"/>
<stop offset="1" style="stop-color:rgb(85.882353%,38.823529%,15.686275%);stop-opacity:1;"/>
</linearGradient>
<linearGradient id="linear2" gradientUnits="userSpaceOnUse" x1="40.709999" y1="54.48" x2="40.709999" y2="260.790009" gradientTransform="matrix(0.183908,0,0,0.183908,0.0128736,0.0193096)">
<stop offset="0" style="stop-color:rgb(96.078431%,63.137255%,53.72549%);stop-opacity:1;"/>
<stop offset="1" style="stop-color:rgb(85.882353%,38.823529%,15.686275%);stop-opacity:1;"/>
</linearGradient>
<filter id="alpha" filterUnits="objectBoundingBox" x="0%" y="0%" width="100%" height="100%">
  <feColorMatrix type="matrix" in="SourceGraphic" values="0 0 0 0 1 0 0 0 0 1 0 0 0 0 1 0 0 0 1 0"/>
</filter>
<mask id="mask0">
  <g filter="url(#alpha)">
<rect x="0" y="0" width="48" height="48" style="fill:rgb(0%,0%,0%);fill-opacity:0.698039;stroke:none;"/>
  </g>
</mask>
<clipPath id="clip1">
  <rect x="0" y="0" width="48" height="48"/>
</clipPath>
<g id="surface5" clip-path="url(#clip1)">
<path style=" stroke:none;fill-rule:nonzero;fill:rgb(100%,100%,100%);fill-opacity:1;" d="M 30.5625 0.9375 L 30.5625 16.480469 L 28.253906 19.238281 L 28.035156 19.511719 L 28.035156 19.855469 L 28.21875 33.011719 L 22.542969 36.355469 L 22.542969 15.226562 L 22.285156 14.957031 L 17.46875 9.929688 L 17.453125 5.09375 L 24.09375 0.972656 L 30.5625 0.9375 M 31.480469 0.0195312 L 23.828125 0.0546875 L 16.53125 4.582031 L 16.550781 10.296875 L 21.625 15.589844 L 21.625 37.960938 L 29.148438 33.53125 L 28.964844 19.839844 L 31.484375 16.816406 L 31.484375 0.0195312 Z M 31.480469 0.0195312 "/>
<path style=" stroke:none;fill-rule:nonzero;fill:rgb(100%,100%,100%);fill-opacity:1;" d="M 39.023438 11.457031 L 44.703125 14.800781 L 44.519531 27.957031 L 44.519531 28.335938 L 44.78125 28.609375 L 47.070312 30.980469 L 47.046875 46.867188 L 40.574219 46.839844 L 33.9375 42.71875 L 33.953125 37.839844 L 38.816406 31.859375 L 39.023438 31.605469 L 39.023438 11.457031 M 38.105469 9.847656 L 38.105469 31.277344 L 33.027344 37.511719 L 33.011719 43.226562 L 40.308594 47.757812 L 47.960938 47.792969 L 47.988281 30.609375 L 45.4375 27.972656 L 45.621094 14.28125 L 38.109375 9.847656 Z M 38.105469 9.847656 "/>
<path style=" stroke:none;fill-rule:nonzero;fill:rgb(100%,100%,100%);fill-opacity:1;" d="M 6.015625 11.648438 L 11.691406 14.988281 L 11.507812 28.148438 L 11.507812 28.527344 L 11.769531 28.800781 L 14.058594 31.167969 L 14.035156 47.054688 L 7.554688 47.027344 L 0.921875 42.90625 L 0.933594 38.03125 L 5.804688 32.046875 L 6.011719 31.796875 L 6.011719 11.648438 M 5.09375 10.039062 L 5.09375 31.46875 L 0.0117188 37.699219 L 0 43.421875 L 7.296875 47.945312 L 14.949219 47.980469 L 14.976562 30.796875 L 12.429688 28.15625 L 12.613281 14.464844 L 5.097656 10.039062 Z M 5.09375 10.039062 "/>
</g>
</defs>
<g id="surface1">
<path style=" stroke:none;fill-rule:nonzero;fill:url(#linear0);" d="M 29.164062 33.53125 L 21.640625 37.960938 L 21.640625 15.589844 L 16.566406 10.296875 L 16.546875 4.582031 L 23.839844 0.0546875 L 31.496094 0.0195312 L 31.496094 16.816406 L 28.976562 19.839844 Z M 29.164062 33.53125 "/>
<path style=" stroke:none;fill-rule:nonzero;fill:url(#linear1);" d="M 45.644531 14.277344 L 38.121094 9.847656 L 38.121094 31.277344 L 33.046875 37.511719 L 33.027344 43.226562 L 40.324219 47.757812 L 47.976562 47.792969 L 48.003906 30.609375 L 45.453125 27.972656 Z M 45.644531 14.277344 "/>
<path style=" stroke:none;fill-rule:nonzero;fill:url(#linear2);" d="M 12.632812 14.46875 L 5.109375 10.039062 L 5.109375 31.46875 L 0.03125 37.699219 L 0.0117188 43.421875 L 7.308594 47.945312 L 14.960938 47.980469 L 14.988281 30.796875 L 12.441406 28.15625 Z M 12.632812 14.46875 "/>
<path style=" stroke:none;fill-rule:nonzero;fill:rgb(100%,100%,100%);fill-opacity:1;" d="M 30.5625 0.9375 L 30.5625 16.480469 L 28.253906 19.238281 L 28.035156 19.511719 L 28.035156 19.855469 L 28.21875 33.011719 L 22.542969 36.355469 L 22.542969 15.226562 L 22.285156 14.957031 L 17.46875 9.929688 L 17.453125 5.09375 L 24.09375 0.972656 L 30.5625 0.9375 M 31.480469 0.0195312 L 23.828125 0.0546875 L 16.53125 4.582031 L 16.550781 10.296875 L 21.625 15.589844 L 21.625 37.960938 L 29.148438 33.53125 L 28.964844 19.839844 L 31.484375 16.816406 L 31.484375 0.0195312 Z M 31.480469 0.0195312 "/>
<path style=" stroke:none;fill-rule:nonzero;fill:rgb(100%,100%,100%);fill-opacity:1;" d="M 39.023438 11.457031 L 44.703125 14.800781 L 44.519531 27.957031 L 44.519531 28.335938 L 44.78125 28.609375 L 47.070312 30.980469 L 47.046875 46.867188 L 40.574219 46.839844 L 33.9375 42.71875 L 33.953125 37.839844 L 38.816406 31.859375 L 39.023438 31.605469 L 39.023438 11.457031 M 38.105469 9.847656 L 38.105469 31.277344 L 33.027344 37.511719 L 33.011719 43.226562 L 40.308594 47.757812 L 47.960938 47.792969 L 47.988281 30.609375 L 45.4375 27.972656 L 45.621094 14.28125 L 38.109375 9.847656 Z M 38.105469 9.847656 "/>
<path style=" stroke:none;fill-rule:nonzero;fill:rgb(100%,100%,100%);fill-opacity:1;" d="M 6.015625 11.648438 L 11.691406 14.988281 L 11.507812 28.148438 L 11.507812 28.527344 L 11.769531 28.800781 L 14.058594 31.167969 L 14.035156 47.054688 L 7.554688 47.027344 L 0.921875 42.90625 L 0.933594 38.03125 L 5.804688 32.046875 L 6.011719 31.796875 L 6.011719 11.648438 M 5.09375 10.039062 L 5.09375 31.46875 L 0.0117188 37.699219 L 0 43.421875 L 7.296875 47.945312 L 14.949219 47.980469 L 14.976562 30.796875 L 12.429688 28.15625 L 12.613281 14.464844 L 5.097656 10.039062 Z M 5.09375 10.039062 "/>
<use xlink:href="#surface5" mask="url(#mask0)"/>
</g>
</svg>
